<svg width="108" height="30" viewBox="0 0 108 30" fill="none" xmlns="http://www.w3.org/2000/svg">
<path d="M14.9737 3.68546V15L12.395 13.5264C7.81662 10.8951 4.97484 6.00097 4.97484 0.685791H3.08032V13.6317C3.08032 17.8417 5.5011 21.736 9.34276 23.5779L15.0263 26.3145V15L17.605 16.4735C22.1834 19.1047 25.0252 23.9989 25.0252 29.3141H26.9197V16.3682C26.9197 12.1582 24.4989 8.26387 20.6573 6.42198L14.9737 3.68546Z" fill="#FF6348"/>
<path d="M100.111 28.6035C98.543 28.6035 97.1944 28.4153 96.0653 28.0389C94.9676 27.6626 94.1364 26.9255 93.5719 25.8278C93.0074 24.6987 92.7251 23.0521 92.7251 20.8881V11.0086C92.7251 8.5936 93.3367 6.91566 94.5599 5.97476C95.783 5.00249 97.6335 4.51636 100.111 4.51636C102.589 4.51636 104.424 5.00249 105.615 5.97476C106.839 6.91566 107.45 8.5936 107.45 11.0086V20.8881C107.45 23.0521 107.168 24.683 106.603 25.7808C106.07 26.8785 105.255 27.6312 104.157 28.0389C103.059 28.4153 101.711 28.6035 100.111 28.6035ZM100.111 25.4044C100.801 25.4044 101.303 25.2162 101.617 24.8399C101.93 24.4321 102.087 23.7108 102.087 22.6758V10.444C102.087 9.47178 101.93 8.78178 101.617 8.37406C101.334 7.93497 100.833 7.71543 100.111 7.71543C99.4212 7.71543 98.9037 7.91929 98.5587 8.32701C98.2451 8.73474 98.0882 9.44042 98.0882 10.444V22.6758C98.0882 23.7108 98.2451 24.4321 98.5587 24.8399C98.9037 25.2162 99.4212 25.4044 100.111 25.4044Z" fill="#2C2928"/>
<path d="M74.1326 28.227V0.42334H83.8709C85.1882 0.42334 86.2702 0.61152 87.117 0.98788C87.9952 1.36424 88.6382 1.94447 89.0459 2.72855C89.485 3.48127 89.7045 4.43786 89.7045 5.59831V22.2523C89.7045 23.7891 89.4379 24.9966 88.9047 25.8748C88.3716 26.7529 87.6032 27.3645 86.5995 27.7095C85.6273 28.0545 84.4668 28.227 83.1182 28.227H74.1326ZM79.825 25.4043H82.2243C82.8516 25.4043 83.3377 25.2161 83.6827 24.8398C84.0591 24.4634 84.2473 23.7577 84.2473 22.7227V6.20989C84.2473 5.1749 84.0591 4.46922 83.6827 4.09286C83.3377 3.7165 82.8516 3.52832 82.2243 3.52832H79.825V25.4043Z" fill="#2C2928"/>
<path d="M63.4491 28.6035C61.8809 28.6035 60.5323 28.4153 59.4032 28.0389C58.3055 27.6626 57.4743 26.9255 56.9098 25.8278C56.3453 24.6987 56.063 23.0521 56.063 20.8881V11.0086C56.063 8.5936 56.6746 6.91566 57.8977 5.97476C59.1209 5.00249 60.9714 4.51636 63.4491 4.51636C65.9268 4.51636 67.7616 5.00249 68.9534 5.97476C70.1765 6.91566 70.7881 8.5936 70.7881 11.0086V20.8881C70.7881 23.0521 70.5059 24.683 69.9413 25.7808C69.4081 26.8785 68.5927 27.6312 67.495 28.0389C66.3972 28.4153 65.0486 28.6035 63.4491 28.6035ZM63.4491 25.4044C64.1391 25.4044 64.6409 25.2162 64.9545 24.8399C65.2682 24.4321 65.425 23.7108 65.425 22.6758V10.444C65.425 9.47178 65.2682 8.78178 64.9545 8.37406C64.6723 7.93497 64.1704 7.71543 63.4491 7.71543C62.7591 7.71543 62.2416 7.91929 61.8966 8.32701C61.583 8.73474 61.4261 9.44042 61.4261 10.444V22.6758C61.4261 23.7108 61.583 24.4321 61.8966 24.8399C62.2416 25.2162 62.7591 25.4044 63.4491 25.4044Z" fill="#2C2928"/>
<path d="M45.503 28.7916C43.9662 28.7916 42.6019 28.6035 41.4101 28.2271C40.2496 27.8821 39.3244 27.1451 38.6344 26.016C37.9758 24.8555 37.6465 23.1462 37.6465 20.8881V6.30405C37.6465 4.64179 37.9758 3.35589 38.6344 2.44635C39.3244 1.53681 40.2653 0.90954 41.4571 0.564543C42.649 0.188181 44.0133 0 45.5501 0C47.1182 0 48.4669 0.188181 49.596 0.564543C50.7564 0.940903 51.6503 1.58385 52.2775 2.49339C52.9048 3.40293 53.2184 4.67315 53.2184 6.30405V12.0436H47.7612V6.06882C47.7612 5.3161 47.6671 4.75156 47.4789 4.3752C47.2907 3.96747 47.0242 3.70088 46.6792 3.57543C46.3655 3.44998 45.9892 3.38725 45.5501 3.38725C45.111 3.38725 44.7189 3.44998 44.3739 3.57543C44.0289 3.70088 43.7624 3.96747 43.5742 4.3752C43.386 4.75156 43.2919 5.3161 43.2919 6.06882V22.911C43.2919 23.6324 43.386 24.1969 43.5742 24.6046C43.7624 24.981 44.0289 25.2476 44.3739 25.4044C44.7189 25.5298 45.111 25.5926 45.5501 25.5926C45.9892 25.5926 46.3655 25.5298 46.6792 25.4044C47.0242 25.2476 47.2907 24.981 47.4789 24.6046C47.6671 24.1969 47.7612 23.6324 47.7612 22.911V17.4067H53.2184V20.841C53.2184 23.1305 52.9048 24.8555 52.2775 26.016C51.6503 27.1451 50.7564 27.8821 49.596 28.2271C48.4669 28.6035 47.1026 28.7916 45.503 28.7916Z" fill="#2C2928"/>
</svg>
