<svg width="800" height="280" viewBox="0 0 800 280" fill="none" xmlns="http://www.w3.org/2000/svg">
<path d="M238.803 91.0954V75.63H334.765V118.73H258.706V131.027H336.033V146.492H295.468V163.606H338.441V179.071H232.592V163.606H275.565V146.492H238.803V103.265H314.863V91.0954H238.803ZM430.148 149.788V144.337H353.708V131.153H450.05V162.972H373.61V168.423H451.318V181.606H353.708V149.788H430.148ZM390.47 99.0817V89.8278H348.384V74.3623H410.372V123.928H390.47V114.547H348.384V99.0817H390.47ZM450.05 73.0947V125.449H430.148V103.772L414.175 107.448V91.6025L430.148 87.9263V73.0947H450.05ZM458.724 103.011C458.724 98.4479 459.612 94.3914 461.387 90.5884C463.161 87.0389 465.57 83.8698 468.866 81.2077C471.908 78.6724 475.711 76.6441 480.275 75.1229C484.585 73.8553 489.529 73.0947 494.853 73.0947C500.177 73.0947 504.994 73.8553 509.558 75.1229C513.868 76.6441 517.671 78.6724 520.967 81.2077C524.009 83.8698 526.544 87.0389 528.319 90.5884C530.094 94.3914 530.981 98.4479 530.981 103.011C530.981 107.575 530.094 111.632 528.319 115.181C526.544 118.984 524.009 122.153 520.967 124.688C517.671 127.351 513.868 129.379 509.558 130.646C504.994 132.168 500.177 132.801 494.853 132.801C489.529 132.801 484.585 132.168 480.275 130.646C475.711 129.379 471.908 127.351 468.866 124.688C465.57 122.153 463.161 118.984 461.387 115.181C459.612 111.632 458.724 107.575 458.724 103.011ZM528.826 139.9V142.689C528.826 145.478 528.446 148.267 527.812 151.056L571.293 166.141L563.18 182.113L518.304 166.268C513.741 170.324 507.656 173.62 500.05 176.409C492.317 178.944 482.81 180.846 471.655 182.113L464.936 166.014C471.908 165.254 478.12 164.239 483.697 162.972C489.022 161.704 493.712 160.183 497.515 158.155C501.191 156.38 503.98 154.098 506.008 151.436C507.91 148.901 508.924 145.985 508.924 142.562V139.9H528.826ZM564.194 73.0947V142.436H544.291V73.0947H564.194ZM494.853 117.336C496.881 117.336 499.036 117.082 501.064 116.322C502.966 115.688 504.741 114.674 506.262 113.406C507.656 112.139 508.797 110.617 509.811 108.843C510.572 107.195 511.079 105.293 511.079 103.011C511.079 100.856 510.572 98.8282 509.811 97.0534C508.797 95.2787 507.656 93.7575 506.262 92.4899C504.741 91.2222 502.966 90.3348 501.064 89.5742C499.036 88.9404 496.881 88.5601 494.853 88.5601C492.571 88.5601 490.543 88.9404 488.641 89.5742C486.613 90.3348 484.965 91.2222 483.571 92.4899C482.049 93.7575 480.782 95.2787 480.021 97.0534C479.007 98.8282 478.627 100.856 478.627 103.011C478.627 105.293 479.007 107.195 480.021 108.843C480.782 110.617 482.049 112.139 483.571 113.406C484.965 114.674 486.613 115.688 488.641 116.322C490.543 117.082 492.571 117.336 494.853 117.336Z" fill="#FF6348"/>
</svg>
